<svg width="1440" height="676" viewBox="0 0 1440 676" fill="none" xmlns="http://www.w3.org/2000/svg">
<g opacity="0.2">
<path d="M109.922 267V269H111.922V267H109.922ZM67.7344 267H65.7344V269H67.7344V267ZM67.7344 179.25H69.7344V177.25H67.7344V179.25ZM-14.5312 179.25V177.25H-16.5312V179.25H-14.5312ZM-14.5312 267V269H-12.5312V267H-14.5312ZM-56.7188 267H-58.7188V269H-56.7188V267ZM-56.7188 62.25V60.25H-58.7188V62.25H-56.7188ZM-14.5312 62.25H-12.5312V60.25H-14.5312V62.25ZM-14.5312 145.219H-16.5312V147.219H-14.5312V145.219ZM67.7344 145.219V147.219H69.7344V145.219H67.7344ZM67.7344 62.25V60.25H65.7344V62.25H67.7344ZM109.922 62.25H111.922V60.25H109.922V62.25ZM109.922 265H67.7344V269H109.922V265ZM69.7344 267V179.25H65.7344V267H69.7344ZM67.7344 177.25H-14.5312V181.25H67.7344V177.25ZM-16.5312 179.25V267H-12.5312V179.25H-16.5312ZM-14.5312 265H-56.7188V269H-14.5312V265ZM-54.7188 267V62.25H-58.7188V267H-54.7188ZM-56.7188 64.25H-14.5312V60.25H-56.7188V64.25ZM-16.5312 62.25V145.219H-12.5312V62.25H-16.5312ZM-14.5312 147.219H67.7344V143.219H-14.5312V147.219ZM69.7344 145.219V62.25H65.7344V145.219H69.7344ZM67.7344 64.25H109.922V60.25H67.7344V64.25ZM107.922 62.25V267H111.922V62.25H107.922ZM255.536 132.703L254.098 134.093L254.103 134.098L255.536 132.703ZM267.068 232.266L265.262 231.405L265.259 231.411L267.068 232.266ZM242.88 259.969L241.82 258.273L241.813 258.277L242.88 259.969ZM207.161 269.672L207.175 267.672H207.161V269.672ZM159.63 251.531L158.172 252.9L158.177 252.905L159.63 251.531ZM142.474 178.125V176.125H140.474V178.125H142.474ZM234.443 178.125V180.125H236.749L236.422 177.842L234.443 178.125ZM222.911 153.516L221.519 154.952L221.525 154.957L221.53 154.962L222.911 153.516ZM165.396 151.406L164.537 149.6L164.519 149.608L164.501 149.617L165.396 151.406ZM156.958 155.625L155.116 156.403L155.946 158.367L157.853 157.414L156.958 155.625ZM145.849 129.328L144.605 127.762L143.415 128.707L144.006 130.106L145.849 129.328ZM234.021 205.828L235.999 206.124L236.342 203.828H234.021V205.828ZM182.411 205.828V203.828H180.411V205.828H182.411ZM188.88 230.016L187.408 231.37L187.415 231.377L187.422 231.384L188.88 230.016ZM203.505 113.891C224.306 113.891 241.109 120.65 254.098 134.093L256.975 131.313C243.151 117.006 225.267 109.891 203.505 109.891V113.891ZM254.103 134.098C267.077 147.435 273.646 165.272 273.646 187.828H277.646C277.646 164.447 270.808 145.534 256.97 131.309L254.103 134.098ZM273.646 187.828V191.906H277.646V187.828H273.646ZM273.646 191.906C273.646 206.551 270.838 219.705 265.262 231.405L268.873 233.126C274.735 220.826 277.646 207.074 277.646 191.906H273.646ZM265.259 231.411C259.787 242.994 251.974 251.926 241.82 258.273L243.94 261.665C254.786 254.886 263.098 245.35 268.876 233.12L265.259 231.411ZM241.813 258.277C231.759 264.617 220.235 267.763 207.175 267.672L207.147 271.672C220.9 271.768 233.188 268.445 243.947 261.66L241.813 258.277ZM207.161 267.672C187.333 267.672 172.063 261.767 161.083 250.157L158.177 252.905C170.072 265.483 186.489 271.672 207.161 271.672V267.672ZM161.088 250.163C150.097 238.45 144.474 221.936 144.474 200.344H140.474C140.474 222.626 146.288 240.237 158.172 252.9L161.088 250.163ZM144.474 200.344V178.125H140.474V200.344H144.474ZM142.474 180.125H234.443V176.125H142.474V180.125ZM236.422 177.842C234.875 167.007 230.876 158.353 224.292 152.069L221.53 154.962C227.322 160.49 231.01 168.243 232.463 178.408L236.422 177.842ZM224.303 152.079C217.784 145.761 209.385 142.656 199.286 142.656V146.656C208.5 146.656 215.851 149.458 221.519 154.952L224.303 152.079ZM199.286 142.656C185.937 142.656 174.333 144.944 164.537 149.6L166.254 153.213C175.396 148.868 186.385 146.656 199.286 146.656V142.656ZM164.501 149.617L156.064 153.836L157.853 157.414L166.29 153.195L164.501 149.617ZM158.8 154.847L147.691 128.55L144.006 130.106L155.116 156.403L158.8 154.847ZM147.093 130.894C153.704 125.642 161.952 121.48 171.886 118.444L170.717 114.619C160.402 117.77 151.681 122.14 144.605 127.762L147.093 130.894ZM171.886 118.444C181.809 115.412 192.345 113.891 203.505 113.891V109.891C191.977 109.891 181.045 111.463 170.717 114.619L171.886 118.444ZM207.161 238.906C214.947 238.906 221.412 235.992 226.397 230.194L223.363 227.587C219.16 232.476 213.813 234.906 207.161 234.906V238.906ZM226.397 230.194C231.322 224.465 234.466 216.373 235.999 206.124L232.043 205.532C230.575 215.346 227.626 222.628 223.363 227.587L226.397 230.194ZM234.021 203.828H182.411V207.828H234.021V203.828ZM180.411 205.828V209.484H184.411V205.828H180.411ZM180.411 209.484C180.411 218.779 182.638 226.185 187.408 231.37L190.352 228.662C186.497 224.471 184.411 218.19 184.411 209.484H180.411ZM187.422 231.384C192.203 236.477 198.881 238.906 207.161 238.906V234.906C199.691 234.906 194.182 232.742 190.338 228.647L187.422 231.384ZM387.932 152.953L387.663 154.935L389.899 155.238L389.932 152.982L387.932 152.953ZM343.073 167.438L341.255 166.602L341.073 167V167.438H343.073ZM343.073 267V269H345.073V267H343.073ZM302.432 267H300.432V269H302.432V267ZM302.432 114.844V112.844H300.432V114.844H302.432ZM340.823 114.844L342.819 114.72L342.702 112.844H340.823V114.844ZM341.948 132.984L339.951 133.108L340.358 139.672L343.675 133.993L341.948 132.984ZM388.494 113.859L390.494 113.888L390.516 112.391L389.086 111.949L388.494 113.859ZM388.201 150.971C382.607 150.213 377.639 149.828 373.307 149.828V153.828C377.412 153.828 382.194 154.193 387.663 154.935L388.201 150.971ZM373.307 149.828C357.468 149.828 346.477 155.237 341.255 166.602L344.89 168.273C349.23 158.825 358.396 153.828 373.307 153.828V149.828ZM341.073 167.438V267H345.073V167.438H341.073ZM343.073 265H302.432V269H343.073V265ZM304.432 267V114.844H300.432V267H304.432ZM302.432 116.844H340.823V112.844H302.432V116.844ZM338.826 114.968L339.951 133.108L343.944 132.861L342.819 114.72L338.826 114.968ZM343.675 133.993C351.524 120.549 362.209 114.031 375.838 114.031V110.031C360.592 110.031 348.683 117.482 340.22 131.976L343.675 133.993ZM375.838 114.031C380.156 114.031 384.174 114.616 387.903 115.77L389.086 111.949C384.94 110.666 380.52 110.031 375.838 110.031V114.031ZM386.495 113.831L385.932 152.924L389.932 152.982L390.494 113.888L386.495 113.831ZM465.765 205.969L467.449 204.89L466.108 202.797L464.351 204.555L465.765 205.969ZM451.14 220.594L449.726 219.18L449.14 219.765V220.594H451.14ZM451.14 267V269H453.14V267H451.14ZM410.499 267H408.499V269H410.499V267ZM410.499 51V49H408.499V51H410.499ZM451.14 51H453.14V49H451.14V51ZM451.14 170.672H449.14V176.501L452.719 171.9L451.14 170.672ZM459.015 160.547L457.493 159.25L457.464 159.284L457.436 159.319L459.015 160.547ZM497.968 114.844V112.844H497.045L496.446 113.546L497.968 114.844ZM546.765 114.844L548.276 116.154L551.146 112.844H546.765V114.844ZM491.781 178.266L490.269 176.956L489.266 178.113L490.122 179.383L491.781 178.266ZM551.546 267V269H555.305L553.205 265.883L551.546 267ZM504.859 267L503.175 268.079L503.765 269H504.859V267ZM464.351 204.555L449.726 219.18L452.554 222.008L467.179 207.383L464.351 204.555ZM449.14 220.594V267H453.14V220.594H449.14ZM451.14 265H410.499V269H451.14V265ZM412.499 267V51H408.499V267H412.499ZM410.499 53H451.14V49H410.499V53ZM449.14 51V170.672H453.14V51H449.14ZM452.719 171.9L460.594 161.775L457.436 159.319L449.561 169.444L452.719 171.9ZM460.537 161.844L499.49 116.141L496.446 113.546L457.493 159.25L460.537 161.844ZM497.968 116.844H546.765V112.844H497.968V116.844ZM545.254 113.534L490.269 176.956L493.292 179.576L548.276 116.154L545.254 113.534ZM490.122 179.383L549.887 268.117L553.205 265.883L493.439 177.148L490.122 179.383ZM551.546 265H504.859V269H551.546V265ZM506.543 265.921L467.449 204.89L464.081 207.048L503.175 268.079L506.543 265.921ZM675.645 132.703L674.207 134.093L674.211 134.098L675.645 132.703ZM687.176 232.266L685.371 231.405L685.368 231.411L687.176 232.266ZM662.989 259.969L661.929 258.273L661.922 258.277L662.989 259.969ZM627.27 269.672L627.284 267.672H627.27V269.672ZM579.739 251.531L578.28 252.9L578.286 252.905L579.739 251.531ZM562.583 178.125V176.125H560.583V178.125H562.583ZM654.551 178.125V180.125H656.857L656.531 177.842L654.551 178.125ZM643.02 153.516L641.628 154.952L641.634 154.957L641.639 154.962L643.02 153.516ZM585.504 151.406L584.646 149.6L584.628 149.608L584.61 149.617L585.504 151.406ZM577.067 155.625L575.225 156.403L576.054 158.367L577.961 157.414L577.067 155.625ZM565.958 129.328L564.713 127.762L563.524 128.707L564.115 130.106L565.958 129.328ZM654.129 205.828L656.107 206.124L656.451 203.828H654.129V205.828ZM602.52 205.828V203.828H600.52V205.828H602.52ZM608.989 230.016L607.517 231.37L607.524 231.377L607.531 231.384L608.989 230.016ZM623.614 113.891C644.414 113.891 661.218 120.65 674.207 134.093L677.083 131.313C663.259 117.006 645.376 109.891 623.614 109.891V113.891ZM674.211 134.098C687.185 147.435 693.754 165.272 693.754 187.828H697.754C697.754 164.447 690.917 145.534 677.079 131.309L674.211 134.098ZM693.754 187.828V191.906H697.754V187.828H693.754ZM693.754 191.906C693.754 206.551 690.947 219.705 685.371 231.405L688.982 233.126C694.843 220.826 697.754 207.074 697.754 191.906H693.754ZM685.368 231.411C679.896 242.994 672.083 251.926 661.929 258.273L664.049 261.665C674.895 254.886 683.207 245.35 688.985 233.12L685.368 231.411ZM661.922 258.277C651.868 264.617 640.344 267.763 627.284 267.672L627.256 271.672C641.009 271.768 653.297 268.445 664.056 261.66L661.922 258.277ZM627.27 267.672C607.442 267.672 592.172 261.767 581.192 250.157L578.286 252.905C590.181 265.483 606.598 271.672 627.27 271.672V267.672ZM581.197 250.163C570.205 238.45 564.583 221.936 564.583 200.344H560.583C560.583 222.626 566.397 240.237 578.28 252.9L581.197 250.163ZM564.583 200.344V178.125H560.583V200.344H564.583ZM562.583 180.125H654.551V176.125H562.583V180.125ZM656.531 177.842C654.983 167.007 650.985 158.353 644.401 152.069L641.639 154.962C647.43 160.49 651.119 168.243 652.571 178.408L656.531 177.842ZM644.412 152.079C637.893 145.761 629.493 142.656 619.395 142.656V146.656C628.609 146.656 635.96 149.458 641.628 154.952L644.412 152.079ZM619.395 142.656C606.046 142.656 594.442 144.944 584.646 149.6L586.363 153.213C595.505 148.868 606.494 146.656 619.395 146.656V142.656ZM584.61 149.617L576.172 153.836L577.961 157.414L586.399 153.195L584.61 149.617ZM578.909 154.847L567.8 128.55L564.115 130.106L575.225 156.403L578.909 154.847ZM567.202 130.894C573.813 125.642 582.06 121.48 591.995 118.444L590.826 114.619C580.511 117.77 571.79 122.14 564.713 127.762L567.202 130.894ZM591.995 118.444C601.918 115.412 612.454 113.891 623.614 113.891V109.891C612.086 109.891 601.154 111.463 590.826 114.619L591.995 118.444ZM627.27 238.906C635.055 238.906 641.521 235.992 646.505 230.194L643.472 227.587C639.269 232.476 633.922 234.906 627.27 234.906V238.906ZM646.505 230.194C651.43 224.465 654.575 216.373 656.107 206.124L652.151 205.532C650.684 215.346 647.735 222.628 643.472 227.587L646.505 230.194ZM654.129 203.828H602.52V207.828H654.129V203.828ZM600.52 205.828V209.484H604.52V205.828H600.52ZM600.52 209.484C600.52 218.779 602.747 226.185 607.517 231.37L610.461 228.662C606.606 224.471 604.52 218.19 604.52 209.484H600.52ZM607.531 231.384C612.311 236.477 618.99 238.906 627.27 238.906V234.906C619.8 234.906 614.291 232.742 610.447 228.647L607.531 231.384ZM797.494 213.281L796.47 214.999L796.489 215.011L796.509 215.022L797.494 213.281ZM773.869 205.547L773.458 207.504L773.464 207.505L773.869 205.547ZM736.322 125.672L737.578 127.228L737.579 127.227L736.322 125.672ZM826.603 125.672L825.365 127.242L825.371 127.247L826.603 125.672ZM844.041 161.109V163.109H846.041V161.109H844.041ZM803.4 161.109H801.4V163.109H803.4V161.109ZM797.775 146.766L796.343 148.162L796.352 148.171L796.361 148.18L797.775 146.766ZM765.009 168.422L763.9 170.086L763.921 170.1L763.943 170.114L765.009 168.422ZM786.666 175.594L786.266 177.553L786.275 177.555L786.284 177.557L786.666 175.594ZM812.259 182.344L812.948 180.466L812.945 180.465L812.259 182.344ZM826.603 257.016L827.768 258.641L827.776 258.635L826.603 257.016ZM746.447 263.062L745.601 264.875L745.611 264.88L745.622 264.884L746.447 263.062ZM723.244 244.359L721.61 245.513L721.616 245.522L723.244 244.359ZM714.806 218.625V216.625H712.806V218.625H714.806ZM753.338 218.625L755.335 218.521L755.236 216.625H753.338V218.625ZM798.9 236.625L800.088 238.234L800.094 238.229L798.9 236.625ZM806.947 224.953C806.947 219.143 803.963 214.645 798.479 211.541L796.509 215.022C800.963 217.543 802.947 220.825 802.947 224.953H806.947ZM798.518 211.563C793.346 208.48 785.2 205.849 774.274 203.588L773.464 207.505C784.288 209.745 791.892 212.27 796.47 214.999L798.518 211.563ZM774.28 203.59C756.347 199.826 743.142 194.18 734.453 186.796C725.84 179.478 721.588 170.396 721.588 159.422H717.588C717.588 171.604 722.382 181.788 731.863 189.844C741.267 197.836 755.203 203.674 773.458 207.504L774.28 203.59ZM721.588 159.422C721.588 146.568 726.859 135.876 737.578 127.228L735.066 124.115C723.473 133.468 717.588 145.275 717.588 159.422H721.588ZM737.579 127.227C748.391 118.487 762.584 114.031 780.338 114.031V110.031C761.904 110.031 746.752 114.669 735.065 124.116L737.579 127.227ZM780.338 114.031C799.343 114.031 814.284 118.504 825.365 127.242L827.842 124.101C815.86 114.653 799.957 110.031 780.338 110.031V114.031ZM825.371 127.247C836.52 135.969 842.041 147.205 842.041 161.109H846.041C846.041 145.952 839.936 133.562 827.835 124.097L825.371 127.247ZM844.041 159.109H803.4V163.109H844.041V159.109ZM805.4 161.109C805.4 154.822 803.352 149.514 799.189 145.351L796.361 148.18C799.698 151.517 801.4 155.771 801.4 161.109H805.4ZM799.207 145.369C794.931 140.986 788.445 139 780.197 139V143C787.887 143 793.119 144.857 796.343 148.162L799.207 145.369ZM780.197 139C773.075 139 767.263 140.608 763.034 144.098L765.579 147.183C768.849 144.485 773.631 143 780.197 143V139ZM763.034 144.098C758.832 147.564 756.681 152.063 756.681 157.453H760.681C760.681 153.28 762.281 149.905 765.579 147.183L763.034 144.098ZM756.681 157.453C756.681 162.715 759.207 166.958 763.9 170.086L766.119 166.758C762.374 164.261 760.681 161.191 760.681 157.453H756.681ZM763.943 170.114C768.578 173.036 776.097 175.482 786.266 177.553L787.065 173.634C776.984 171.581 770.066 169.246 766.076 166.73L763.943 170.114ZM786.284 177.557C796.343 179.513 804.765 181.738 811.574 184.223L812.945 180.465C805.878 177.887 797.239 175.612 787.047 173.631L786.284 177.557ZM811.571 184.221C822.065 188.071 829.764 193.267 834.84 199.717C839.897 206.143 842.463 213.955 842.463 223.266H846.463C846.463 213.17 843.661 204.458 837.983 197.244C832.325 190.053 823.923 184.492 812.948 180.466L811.571 184.221ZM842.463 223.266C842.463 236.456 836.853 247.121 825.43 255.396L827.776 258.635C840.166 249.66 846.463 237.825 846.463 223.266H842.463ZM825.438 255.39C813.958 263.616 799.024 267.812 780.478 267.812V271.812C799.62 271.812 815.436 267.478 827.768 258.641L825.438 255.39ZM780.478 267.812C767.965 267.812 756.91 265.605 747.272 261.241L745.622 264.884C755.859 269.52 767.491 271.812 780.478 271.812V267.812ZM747.293 261.25C737.722 256.784 730.272 250.759 724.871 243.197L721.616 245.522C727.465 253.71 735.484 260.154 745.601 264.875L747.293 261.25ZM724.878 243.206C719.475 235.553 716.806 227.373 716.806 218.625H712.806C712.806 228.252 715.762 237.229 721.61 245.513L724.878 243.206ZM714.806 220.625H753.338V216.625H714.806V220.625ZM751.34 218.729C751.74 226.432 754.628 232.545 760.129 236.801L762.577 233.637C758.141 230.205 755.685 225.256 755.335 218.521L751.34 218.729ZM760.129 236.801C765.548 240.993 772.68 242.984 781.322 242.984V238.984C773.276 238.984 767.096 237.132 762.577 233.637L760.129 236.801ZM781.322 242.984C789.297 242.984 795.657 241.505 800.088 238.234L797.712 235.016C794.268 237.558 788.909 238.984 781.322 238.984V242.984ZM800.094 238.229C804.602 234.875 806.947 230.403 806.947 224.953H802.947C802.947 229.065 801.26 232.375 797.706 235.021L800.094 238.229ZM982.061 132.703L980.623 134.093L980.628 134.098L982.061 132.703ZM993.593 232.266L991.787 231.405L991.784 231.411L993.593 232.266ZM969.405 259.969L968.345 258.273L968.338 258.277L969.405 259.969ZM933.686 269.672L933.7 267.672H933.686V269.672ZM886.155 251.531L884.697 252.9L884.702 252.905L886.155 251.531ZM868.999 178.125V176.125H866.999V178.125H868.999ZM960.968 178.125V180.125H963.274L962.947 177.842L960.968 178.125ZM949.436 153.516L948.044 154.952L948.05 154.957L948.055 154.962L949.436 153.516ZM891.921 151.406L891.062 149.6L891.044 149.608L891.026 149.617L891.921 151.406ZM883.483 155.625L881.641 156.403L882.471 158.367L884.378 157.414L883.483 155.625ZM872.374 129.328L871.13 127.762L869.94 128.707L870.531 130.106L872.374 129.328ZM960.546 205.828L962.524 206.124L962.867 203.828H960.546V205.828ZM908.936 205.828V203.828H906.936V205.828H908.936ZM915.405 230.016L913.933 231.37L913.94 231.377L913.947 231.384L915.405 230.016ZM930.03 113.891C950.831 113.891 967.634 120.65 980.623 134.093L983.5 131.313C969.676 117.006 951.792 109.891 930.03 109.891V113.891ZM980.628 134.098C993.602 147.435 1000.17 165.272 1000.17 187.828H1004.17C1004.17 164.447 997.333 145.534 983.495 131.309L980.628 134.098ZM1000.17 187.828V191.906H1004.17V187.828H1000.17ZM1000.17 191.906C1000.17 206.551 997.363 219.705 991.787 231.405L995.398 233.126C1001.26 220.826 1004.17 207.074 1004.17 191.906H1000.17ZM991.784 231.411C986.312 242.994 978.499 251.926 968.345 258.273L970.465 261.665C981.311 254.886 989.623 245.35 995.401 233.12L991.784 231.411ZM968.338 258.277C958.284 264.617 946.76 267.763 933.7 267.672L933.672 271.672C947.425 271.768 959.713 268.445 970.472 261.66L968.338 258.277ZM933.686 267.672C913.858 267.672 898.588 261.767 887.608 250.157L884.702 252.905C896.597 265.483 913.014 271.672 933.686 271.672V267.672ZM887.613 250.163C876.622 238.45 870.999 221.936 870.999 200.344H866.999C866.999 222.626 872.813 240.237 884.697 252.9L887.613 250.163ZM870.999 200.344V178.125H866.999V200.344H870.999ZM868.999 180.125H960.968V176.125H868.999V180.125ZM962.947 177.842C961.4 167.007 957.401 158.353 950.817 152.069L948.055 154.962C953.847 160.49 957.536 168.243 958.988 178.408L962.947 177.842ZM950.828 152.079C944.309 145.761 935.91 142.656 925.811 142.656V146.656C935.025 146.656 942.376 149.458 948.044 154.952L950.828 152.079ZM925.811 142.656C912.462 142.656 900.858 144.944 891.062 149.6L892.779 153.213C901.921 148.868 912.91 146.656 925.811 146.656V142.656ZM891.026 149.617L882.589 153.836L884.378 157.414L892.815 153.195L891.026 149.617ZM885.326 154.847L874.216 128.55L870.531 130.106L881.641 156.403L885.326 154.847ZM873.618 130.894C880.229 125.642 888.477 121.48 898.411 118.444L897.242 114.619C886.927 117.77 878.206 122.14 871.13 127.762L873.618 130.894ZM898.411 118.444C908.334 115.412 918.87 113.891 930.03 113.891V109.891C918.502 109.891 907.57 111.463 897.242 114.619L898.411 118.444ZM933.686 238.906C941.472 238.906 947.937 235.992 952.922 230.194L949.888 227.587C945.685 232.476 940.339 234.906 933.686 234.906V238.906ZM952.922 230.194C957.847 224.465 960.991 216.373 962.524 206.124L958.568 205.532C957.1 215.346 954.151 222.628 949.888 227.587L952.922 230.194ZM960.546 203.828H908.936V207.828H960.546V203.828ZM906.936 205.828V209.484H910.936V205.828H906.936ZM906.936 209.484C906.936 218.779 909.163 226.185 913.933 231.37L916.877 228.662C913.022 224.471 910.936 218.19 910.936 209.484H906.936ZM913.947 231.384C918.728 236.477 925.406 238.906 933.686 238.906V234.906C926.216 234.906 920.707 232.742 916.863 228.647L913.947 231.384ZM1178.51 213.281L1177.48 214.999L1177.5 215.011L1177.52 215.022L1178.51 213.281ZM1154.88 205.547L1154.47 207.504L1154.48 207.505L1154.88 205.547ZM1117.34 125.672L1118.59 127.228L1118.59 127.227L1117.34 125.672ZM1207.62 125.672L1206.38 127.242L1206.39 127.247L1207.62 125.672ZM1225.06 161.109V163.109H1227.06V161.109H1225.06ZM1184.42 161.109H1182.42V163.109H1184.42V161.109ZM1178.79 146.766L1177.36 148.162L1177.37 148.171L1177.38 148.18L1178.79 146.766ZM1146.02 168.422L1144.92 170.086L1144.94 170.1L1144.96 170.114L1146.02 168.422ZM1167.68 175.594L1167.28 177.553L1167.29 177.555L1167.3 177.557L1167.68 175.594ZM1193.27 182.344L1193.96 180.466L1193.96 180.465L1193.27 182.344ZM1207.62 257.016L1208.78 258.641L1208.79 258.635L1207.62 257.016ZM1127.46 263.062L1126.62 264.875L1126.63 264.88L1126.64 264.884L1127.46 263.062ZM1104.26 244.359L1102.62 245.513L1102.63 245.522L1104.26 244.359ZM1095.82 218.625V216.625H1093.82V218.625H1095.82ZM1134.35 218.625L1136.35 218.521L1136.25 216.625H1134.35V218.625ZM1179.92 236.625L1181.1 238.234L1181.11 238.229L1179.92 236.625ZM1187.96 224.953C1187.96 219.143 1184.98 214.645 1179.49 211.541L1177.52 215.022C1181.98 217.543 1183.96 220.825 1183.96 224.953H1187.96ZM1179.53 211.563C1174.36 208.48 1166.21 205.849 1155.29 203.588L1154.48 207.505C1165.3 209.745 1172.91 212.27 1177.48 214.999L1179.53 211.563ZM1155.29 203.59C1137.36 199.826 1124.16 194.18 1115.47 186.796C1106.86 179.478 1102.6 170.396 1102.6 159.422H1098.6C1098.6 171.604 1103.4 181.788 1112.88 189.844C1122.28 197.836 1136.22 203.674 1154.47 207.504L1155.29 203.59ZM1102.6 159.422C1102.6 146.568 1107.87 135.876 1118.59 127.228L1116.08 124.115C1104.49 133.468 1098.6 145.275 1098.6 159.422H1102.6ZM1118.59 127.227C1129.41 118.487 1143.6 114.031 1161.35 114.031V110.031C1142.92 110.031 1127.77 114.669 1116.08 124.116L1118.59 127.227ZM1161.35 114.031C1180.36 114.031 1195.3 118.504 1206.38 127.242L1208.86 124.101C1196.88 114.653 1180.97 110.031 1161.35 110.031V114.031ZM1206.39 127.247C1217.54 135.969 1223.06 147.205 1223.06 161.109H1227.06C1227.06 145.952 1220.95 133.562 1208.85 124.097L1206.39 127.247ZM1225.06 159.109H1184.42V163.109H1225.06V159.109ZM1186.42 161.109C1186.42 154.822 1184.37 149.514 1180.2 145.351L1177.38 148.18C1180.71 151.517 1182.42 155.771 1182.42 161.109H1186.42ZM1180.22 145.369C1175.95 140.986 1169.46 139 1161.21 139V143C1168.9 143 1174.13 144.857 1177.36 148.162L1180.22 145.369ZM1161.21 139C1154.09 139 1148.28 140.608 1144.05 144.098L1146.59 147.183C1149.86 144.485 1154.65 143 1161.21 143V139ZM1144.05 144.098C1139.85 147.564 1137.7 152.063 1137.7 157.453H1141.7C1141.7 153.28 1143.3 149.905 1146.59 147.183L1144.05 144.098ZM1137.7 157.453C1137.7 162.715 1140.22 166.958 1144.92 170.086L1147.13 166.758C1143.39 164.261 1141.7 161.191 1141.7 157.453H1137.7ZM1144.96 170.114C1149.59 173.036 1157.11 175.482 1167.28 177.553L1168.08 173.634C1158 171.581 1151.08 169.246 1147.09 166.73L1144.96 170.114ZM1167.3 177.557C1177.36 179.513 1185.78 181.738 1192.59 184.223L1193.96 180.465C1186.89 177.887 1178.25 175.612 1168.06 173.631L1167.3 177.557ZM1192.59 184.221C1203.08 188.071 1210.78 193.267 1215.86 199.717C1220.91 206.143 1223.48 213.955 1223.48 223.266H1227.48C1227.48 213.17 1224.68 204.458 1219 197.244C1213.34 190.053 1204.94 184.492 1193.96 180.466L1192.59 184.221ZM1223.48 223.266C1223.48 236.456 1217.87 247.121 1206.44 255.396L1208.79 258.635C1221.18 249.66 1227.48 237.825 1227.48 223.266H1223.48ZM1206.45 255.39C1194.97 263.616 1180.04 267.812 1161.49 267.812V271.812C1180.64 271.812 1196.45 267.478 1208.78 258.641L1206.45 255.39ZM1161.49 267.812C1148.98 267.812 1137.93 265.605 1128.29 261.241L1126.64 264.884C1136.87 269.52 1148.51 271.812 1161.49 271.812V267.812ZM1128.31 261.25C1118.74 256.784 1111.29 250.759 1105.89 243.197L1102.63 245.522C1108.48 253.71 1116.5 260.154 1126.62 264.875L1128.31 261.25ZM1105.89 243.206C1100.49 235.553 1097.82 227.373 1097.82 218.625H1093.82C1093.82 228.252 1096.78 237.229 1102.62 245.513L1105.89 243.206ZM1095.82 220.625H1134.35V216.625H1095.82V220.625ZM1132.36 218.729C1132.76 226.432 1135.64 232.545 1141.14 236.801L1143.59 233.637C1139.16 230.205 1136.7 225.256 1136.35 218.521L1132.36 218.729ZM1141.14 236.801C1146.56 240.993 1153.7 242.984 1162.34 242.984V238.984C1154.29 238.984 1148.11 237.132 1143.59 233.637L1141.14 236.801ZM1162.34 242.984C1170.31 242.984 1176.67 241.505 1181.1 238.234L1178.73 235.016C1175.28 237.558 1169.92 238.984 1162.34 238.984V242.984ZM1181.11 238.229C1185.62 234.875 1187.96 230.403 1187.96 224.953H1183.96C1183.96 229.065 1182.28 232.375 1178.72 235.021L1181.11 238.229ZM1342.83 267L1341.05 267.913L1341.6 269H1342.83V267ZM1338.75 253.359L1340.72 253.053L1340.08 248.884L1337.26 252.024L1338.75 253.359ZM1263.23 256.875L1261.91 258.373L1261.91 258.379L1263.23 256.875ZM1266.47 187.125L1265.3 185.501L1265.29 185.505L1266.47 187.125ZM1318.36 174.047V172.047L1318.35 172.047L1318.36 174.047ZM1337.06 174.047V176.047H1339.06V174.047H1337.06ZM1331.58 148.453L1330.05 149.743L1330.06 149.753L1330.06 149.763L1331.58 148.453ZM1298.39 147.047L1297.11 145.51L1297.1 145.518L1297.09 145.526L1298.39 147.047ZM1292.62 160.547V162.547H1294.62V160.547H1292.62ZM1251.98 160.547H1249.98V162.547H1251.98V160.547ZM1283.2 118.5L1283.98 120.341L1283.99 120.338L1284 120.335L1283.2 118.5ZM1361.25 126.234L1359.94 127.748L1359.95 127.754L1359.96 127.76L1361.25 126.234ZM1377.84 231.844H1375.84V231.857L1377.84 231.844ZM1383.89 264.609H1385.89V264.111L1385.65 263.671L1383.89 264.609ZM1383.89 267V269H1385.89V267H1383.89ZM1325.81 234.797L1326.73 236.572L1326.74 236.566L1326.76 236.559L1325.81 234.797ZM1337.06 223.969L1338.82 224.921L1339.06 224.476V223.969H1337.06ZM1337.06 197.812H1339.06V195.812H1337.06V197.812ZM1289.39 218.906L1287.4 218.72L1287.39 218.755L1287.39 218.789L1289.39 218.906ZM1289.25 221.297L1287.25 221.179L1287.25 221.238V221.297H1289.25ZM1344.61 266.087C1342.86 262.673 1341.55 258.346 1340.72 253.053L1336.77 253.666C1337.64 259.248 1339.05 264.014 1341.05 267.913L1344.61 266.087ZM1337.26 252.024C1327.82 262.538 1315.58 267.812 1300.36 267.812V271.812C1316.63 271.812 1329.99 266.118 1340.24 254.695L1337.26 252.024ZM1300.36 267.812C1285.86 267.812 1273.98 263.632 1264.55 255.371L1261.91 258.379C1272.17 267.368 1285.04 271.812 1300.36 271.812V267.812ZM1264.56 255.377C1255.24 247.135 1250.61 236.807 1250.61 224.25H1246.61C1246.61 237.943 1251.72 249.365 1261.91 258.373L1264.56 255.377ZM1250.61 224.25C1250.61 208.694 1256.31 196.953 1267.64 188.745L1265.29 185.505C1252.81 194.547 1246.61 207.556 1246.61 224.25H1250.61ZM1267.63 188.749C1279.16 180.464 1295.98 176.14 1318.37 176.047L1318.35 172.047C1295.55 172.142 1277.77 176.536 1265.3 185.501L1267.63 188.749ZM1318.36 176.047H1337.06V172.047H1318.36V176.047ZM1339.06 174.047V165.328H1335.06V174.047H1339.06ZM1339.06 165.328C1339.06 157.945 1337.13 151.812 1333.09 147.143L1330.06 149.763C1333.33 153.531 1335.06 158.649 1335.06 165.328H1339.06ZM1333.1 147.163C1329.03 142.332 1322.68 140.125 1314.56 140.125V144.125C1322 144.125 1327 146.136 1330.05 149.743L1333.1 147.163ZM1314.56 140.125C1307.41 140.125 1301.51 141.842 1297.11 145.51L1299.67 148.583C1303.14 145.689 1308.03 144.125 1314.56 144.125V140.125ZM1297.09 145.526C1292.74 149.24 1290.62 154.329 1290.62 160.547H1294.62C1294.62 155.327 1296.35 151.417 1299.69 148.568L1297.09 145.526ZM1292.62 158.547H1251.98V162.547H1292.62V158.547ZM1253.98 160.547C1253.98 152.178 1256.55 144.429 1261.76 137.252L1258.52 134.904C1252.85 142.727 1249.98 151.29 1249.98 160.547H1253.98ZM1261.76 137.252C1266.95 130.092 1274.32 124.441 1283.98 120.341L1282.42 116.659C1272.2 120.996 1264.2 127.064 1258.52 134.904L1261.76 137.252ZM1284 120.335C1293.65 116.146 1304.53 114.031 1316.67 114.031V110.031C1304.06 110.031 1292.63 112.229 1282.41 116.665L1284 120.335ZM1316.67 114.031C1335.08 114.031 1349.43 118.676 1359.94 127.748L1362.56 124.72C1351.13 114.855 1335.76 110.031 1316.67 110.031V114.031ZM1359.96 127.76C1370.49 136.687 1375.84 149.301 1375.84 165.891H1379.84C1379.84 148.355 1374.13 134.532 1362.54 124.709L1359.96 127.76ZM1375.84 165.891V231.844H1379.84V165.891H1375.84ZM1375.84 231.857C1375.94 246.415 1377.96 257.72 1382.12 265.548L1385.65 263.671C1381.94 256.686 1379.93 246.147 1379.84 231.831L1375.84 231.857ZM1381.89 264.609V267H1385.89V264.609H1381.89ZM1383.89 265H1342.83V269H1383.89V265ZM1309.22 240.734C1315.52 240.734 1321.37 239.353 1326.73 236.572L1324.89 233.021C1320.13 235.491 1314.91 236.734 1309.22 236.734V240.734ZM1326.76 236.559C1332.12 233.679 1336.17 229.806 1338.82 224.921L1335.3 223.016C1333.07 227.132 1329.63 230.477 1324.86 233.035L1326.76 236.559ZM1339.06 223.969V197.812H1335.06V223.969H1339.06ZM1337.06 195.812H1321.87V199.812H1337.06V195.812ZM1321.87 195.812C1311.52 195.812 1303.28 197.593 1297.41 201.409C1291.43 205.292 1288.1 211.146 1287.4 218.72L1291.38 219.092C1291.99 212.604 1294.74 207.912 1299.58 204.763C1304.54 201.547 1311.88 199.812 1321.87 199.812V195.812ZM1287.39 218.789L1287.25 221.179L1291.24 221.414L1291.39 219.024L1287.39 218.789ZM1287.25 221.297C1287.25 226.89 1289.24 231.605 1293.24 235.284L1295.95 232.341C1292.82 229.458 1291.25 225.829 1291.25 221.297H1287.25ZM1293.24 235.284C1297.26 238.991 1302.67 240.734 1309.22 240.734V236.734C1303.39 236.734 1299.05 235.196 1295.95 232.341L1293.24 235.284ZM1454.83 267V269H1456.83V267H1454.83ZM1414.05 267H1412.05V269H1414.05V267ZM1414.05 51V49H1412.05V51H1414.05ZM1454.83 51H1456.83V49H1454.83V51ZM1454.83 265H1414.05V269H1454.83V265ZM1416.05 267V51H1412.05V267H1416.05ZM1414.05 53H1454.83V49H1414.05V53ZM1452.83 51V267H1456.83V51H1452.83ZM1579.49 267L1577.71 267.913L1578.27 269H1579.49V267ZM1575.41 253.359L1577.39 253.053L1576.74 248.884L1573.93 252.024L1575.41 253.359ZM1499.9 256.875L1498.57 258.373L1498.58 258.379L1499.9 256.875ZM1503.13 187.125L1501.97 185.501L1501.96 185.505L1503.13 187.125ZM1555.02 174.047V172.047L1555.02 172.047L1555.02 174.047ZM1573.73 174.047V176.047H1575.73V174.047H1573.73ZM1568.24 148.453L1566.71 149.743L1566.72 149.753L1566.73 149.763L1568.24 148.453ZM1535.06 147.047L1533.77 145.51L1533.77 145.518L1533.76 145.526L1535.06 147.047ZM1529.29 160.547V162.547H1531.29V160.547H1529.29ZM1488.65 160.547H1486.65V162.547H1488.65V160.547ZM1519.87 118.5L1520.65 120.341L1520.66 120.338L1520.66 120.335L1519.87 118.5ZM1597.91 126.234L1596.61 127.748L1596.61 127.754L1596.62 127.76L1597.91 126.234ZM1614.51 231.844H1612.51V231.857L1614.51 231.844ZM1620.56 264.609H1622.56V264.111L1622.32 263.671L1620.56 264.609ZM1620.56 267V269H1622.56V267H1620.56ZM1562.48 234.797L1563.4 236.572L1563.41 236.566L1563.42 236.559L1562.48 234.797ZM1573.73 223.969L1575.49 224.921L1575.73 224.476V223.969H1573.73ZM1573.73 197.812H1575.73V195.812H1573.73V197.812ZM1526.06 218.906L1524.06 218.72L1524.06 218.755L1524.06 218.789L1526.06 218.906ZM1525.91 221.297L1523.92 221.179L1523.91 221.238V221.297H1525.91ZM1581.27 266.087C1579.52 262.673 1578.21 258.346 1577.39 253.053L1573.44 253.666C1574.3 259.248 1575.71 264.014 1577.71 267.913L1581.27 266.087ZM1573.93 252.024C1564.49 262.538 1552.25 267.812 1537.02 267.812V271.812C1553.3 271.812 1566.65 266.118 1576.9 254.695L1573.93 252.024ZM1537.02 267.812C1522.53 267.812 1510.65 263.632 1501.22 255.371L1498.58 258.379C1508.84 267.368 1521.7 271.812 1537.02 271.812V267.812ZM1501.22 255.377C1491.91 247.135 1487.27 236.807 1487.27 224.25H1483.27C1483.27 237.943 1488.39 249.365 1498.57 258.373L1501.22 255.377ZM1487.27 224.25C1487.27 208.694 1492.98 196.953 1504.31 188.745L1501.96 185.505C1489.48 194.547 1483.27 207.556 1483.27 224.25H1487.27ZM1504.3 188.749C1515.83 180.464 1532.65 176.14 1555.03 176.047L1555.02 172.047C1532.21 172.142 1514.44 176.536 1501.97 185.501L1504.3 188.749ZM1555.02 176.047H1573.73V172.047H1555.02V176.047ZM1575.73 174.047V165.328H1571.73V174.047H1575.73ZM1575.73 165.328C1575.73 157.945 1573.8 151.812 1569.75 147.143L1566.73 149.763C1570 153.531 1571.73 158.649 1571.73 165.328H1575.73ZM1569.77 147.163C1565.69 142.332 1559.35 140.125 1551.23 140.125V144.125C1558.67 144.125 1563.67 146.136 1566.71 149.743L1569.77 147.163ZM1551.23 140.125C1544.07 140.125 1538.18 141.842 1533.77 145.51L1536.34 148.583C1539.81 145.689 1544.69 144.125 1551.23 144.125V140.125ZM1533.76 145.526C1529.41 149.24 1527.29 154.329 1527.29 160.547H1531.29C1531.29 155.327 1533.02 151.417 1536.35 148.568L1533.76 145.526ZM1529.29 158.547H1488.65V162.547H1529.29V158.547ZM1490.65 160.547C1490.65 152.178 1493.22 144.429 1498.42 137.252L1495.19 134.904C1489.51 142.727 1486.65 151.29 1486.65 160.547H1490.65ZM1498.42 137.252C1503.62 130.092 1510.99 124.441 1520.65 120.341L1519.09 116.659C1508.87 120.996 1500.87 127.064 1495.19 134.904L1498.42 137.252ZM1520.66 120.335C1530.32 116.146 1541.2 114.031 1553.34 114.031V110.031C1540.73 110.031 1529.29 112.229 1519.07 116.665L1520.66 120.335ZM1553.34 114.031C1571.75 114.031 1586.1 118.676 1596.61 127.748L1599.22 124.72C1587.79 114.855 1572.42 110.031 1553.34 110.031V114.031ZM1596.62 127.76C1607.15 136.687 1612.51 149.301 1612.51 165.891H1616.51C1616.51 148.355 1610.8 134.532 1599.21 124.709L1596.62 127.76ZM1612.51 165.891V231.844H1616.51V165.891H1612.51ZM1612.51 231.857C1612.6 246.415 1614.63 257.72 1618.79 265.548L1622.32 263.671C1618.61 256.686 1616.6 246.147 1616.51 231.831L1612.51 231.857ZM1618.56 264.609V267H1622.56V264.609H1618.56ZM1620.56 265H1579.49V269H1620.56V265ZM1545.88 240.734C1552.19 240.734 1558.04 239.353 1563.4 236.572L1561.56 233.021C1556.79 235.491 1551.58 236.734 1545.88 236.734V240.734ZM1563.42 236.559C1568.79 233.679 1572.84 229.806 1575.49 224.921L1571.97 223.016C1569.74 227.132 1566.29 230.477 1561.53 233.035L1563.42 236.559ZM1575.73 223.969V197.812H1571.73V223.969H1575.73ZM1573.73 195.812H1558.54V199.812H1573.73V195.812ZM1558.54 195.812C1548.19 195.812 1539.95 197.593 1534.07 201.409C1528.09 205.292 1524.77 211.146 1524.06 218.72L1528.05 219.092C1528.65 212.604 1531.4 207.912 1536.25 204.763C1541.2 201.547 1548.55 199.812 1558.54 199.812V195.812ZM1524.06 218.789L1523.92 221.179L1527.91 221.414L1528.05 219.024L1524.06 218.789ZM1523.91 221.297C1523.91 226.89 1525.91 231.605 1529.9 235.284L1532.61 232.341C1529.48 229.458 1527.91 225.829 1527.91 221.297H1523.91ZM1529.9 235.284C1533.93 238.991 1539.34 240.734 1545.88 240.734V236.734C1540.05 236.734 1535.71 235.196 1532.61 232.341L1529.9 235.284ZM1686.72 114.844L1688.71 114.695L1688.57 112.844H1686.72V114.844ZM1687.98 131.859L1685.99 132.008L1686.36 137.013L1689.53 133.123L1687.98 131.859ZM1772.08 135.234L1770.27 136.089L1771.75 139.225L1773.72 136.371L1772.08 135.234ZM1854.62 126.516L1853.09 127.797L1853.09 127.805L1854.62 126.516ZM1866.72 267V269H1868.72V267H1866.72ZM1825.94 267H1823.94V269H1825.94V267ZM1820.87 151.125L1819.34 152.409L1819.35 152.418L1819.35 152.427L1820.87 151.125ZM1777.7 162.516L1775.85 161.768L1775.7 162.129L1775.7 162.518L1777.7 162.516ZM1777.84 267V269H1779.84L1779.84 266.997L1777.84 267ZM1737.2 267H1735.2V269H1737.2V267ZM1689.25 159.422L1687.49 158.473L1687.25 158.917V159.422H1689.25ZM1689.25 267V269H1691.25V267H1689.25ZM1648.61 267H1646.61V269H1648.61V267ZM1648.61 114.844V112.844H1646.61V114.844H1648.61ZM1684.72 114.992L1685.99 132.008L1689.98 131.711L1688.71 114.695L1684.72 114.992ZM1689.53 133.123C1699.9 120.41 1713.89 114.031 1731.72 114.031V110.031C1712.79 110.031 1697.63 116.871 1686.43 130.595L1689.53 133.123ZM1731.72 114.031C1741.25 114.031 1749.15 115.913 1755.5 119.566C1761.84 123.209 1766.77 128.684 1770.27 136.089L1773.88 134.38C1770.07 126.316 1764.61 120.19 1757.5 116.098C1750.4 112.016 1741.77 110.031 1731.72 110.031V114.031ZM1773.72 136.371C1784.01 121.476 1798.61 114.031 1817.78 114.031V110.031C1797.38 110.031 1781.51 118.056 1770.43 134.098L1773.72 136.371ZM1817.78 114.031C1833.88 114.031 1845.52 118.729 1853.09 127.797L1856.16 125.234C1847.6 114.99 1834.67 110.031 1817.78 110.031V114.031ZM1853.09 127.805C1860.72 136.856 1864.72 150.743 1864.72 169.828H1868.72C1868.72 150.289 1864.65 135.301 1856.15 125.226L1853.09 127.805ZM1864.72 169.828V267H1868.72V169.828H1864.72ZM1866.72 265H1825.94V269H1866.72V265ZM1827.94 267V169.969H1823.94V267H1827.94ZM1827.94 169.969C1827.94 161.16 1826.23 154.297 1822.39 149.823L1819.35 152.427C1822.27 155.828 1823.94 161.528 1823.94 169.969H1827.94ZM1822.41 149.841C1818.47 145.137 1811.77 143.078 1803.01 143.078V147.078C1811.32 147.078 1816.53 149.051 1819.34 152.409L1822.41 149.841ZM1803.01 143.078C1796.59 143.078 1791.02 144.614 1786.41 147.79C1781.8 150.965 1778.3 155.673 1775.85 161.768L1779.56 163.264C1781.79 157.733 1784.85 153.723 1788.68 151.085C1792.5 148.449 1797.25 147.078 1803.01 147.078V143.078ZM1775.7 162.518L1775.84 267.003L1779.84 266.997L1779.7 162.513L1775.7 162.518ZM1777.84 265H1737.2V269H1777.84V265ZM1739.2 267V170.109H1735.2V267H1739.2ZM1739.2 170.109C1739.2 161.116 1737.45 154.143 1733.5 149.662L1730.5 152.306C1733.49 155.701 1735.2 161.478 1735.2 170.109H1739.2ZM1733.5 149.662C1729.47 145.095 1722.86 143.078 1714.28 143.078V147.078C1722.38 147.078 1727.58 148.999 1730.5 152.306L1733.5 149.662ZM1714.28 143.078C1708.23 143.078 1702.91 144.333 1698.38 146.929C1693.84 149.528 1690.22 153.407 1687.49 158.473L1691.01 160.371C1693.43 155.874 1696.56 152.581 1700.37 150.399C1704.18 148.214 1708.79 147.078 1714.28 147.078V143.078ZM1687.25 159.422V267H1691.25V159.422H1687.25ZM1689.25 265H1648.61V269H1689.25V265ZM1650.61 267V114.844H1646.61V267H1650.61ZM1648.61 116.844H1686.72V112.844H1648.61V116.844ZM1942.3 204.141V206.141H1944.23L1944.3 204.208L1942.3 204.141ZM1908.55 204.141L1906.55 204.208L1906.62 206.141H1908.55V204.141ZM1903.77 62.25V60.25H1901.7L1901.77 62.3174L1903.77 62.25ZM1947.08 62.25L1949.08 62.3174L1949.15 60.25H1947.08V62.25ZM1941.88 232.406L1940.48 233.837L1940.49 233.844L1940.5 233.852L1941.88 232.406ZM1941.88 263.203L1940.5 261.757L1940.49 261.765L1940.48 261.773L1941.88 263.203ZM1908.97 263.203L1907.57 264.634L1907.58 264.641L1907.59 264.649L1908.97 263.203ZM1908.97 232.547L1910.37 233.977L1910.37 233.977L1908.97 232.547ZM1942.3 202.141H1908.55V206.141H1942.3V202.141ZM1910.55 204.073L1905.77 62.1826L1901.77 62.3174L1906.55 204.208L1910.55 204.073ZM1903.77 64.25H1947.08V60.25H1903.77V64.25ZM1945.08 62.1826L1940.3 204.073L1944.3 204.208L1949.08 62.3174L1945.08 62.1826ZM1925.42 228.359C1931.85 228.359 1936.8 230.238 1940.48 233.837L1943.28 230.976C1938.71 226.512 1932.69 224.359 1925.42 224.359V228.359ZM1940.5 233.852C1944.29 237.475 1946.21 242.093 1946.21 247.875H1950.21C1950.21 241.094 1947.91 235.4 1943.26 230.96L1940.5 233.852ZM1946.21 247.875C1946.21 253.553 1944.29 258.128 1940.5 261.757L1943.26 264.649C1947.9 260.216 1950.21 254.572 1950.21 247.875H1946.21ZM1940.48 261.773C1936.8 265.372 1931.85 267.25 1925.42 267.25V271.25C1932.69 271.25 1938.71 269.097 1943.28 264.634L1940.48 261.773ZM1925.42 267.25C1919.1 267.25 1914.14 265.377 1910.35 261.757L1907.59 264.649C1912.24 269.092 1918.25 271.25 1925.42 271.25V267.25ZM1910.37 261.773C1906.66 258.147 1904.78 253.568 1904.78 247.875H1900.78C1900.78 254.557 1903.03 260.197 1907.57 264.634L1910.37 261.773ZM1904.78 247.875C1904.78 242.182 1906.66 237.603 1910.37 233.977L1907.57 231.117C1903.03 235.553 1900.78 241.193 1900.78 247.875H1904.78ZM1910.37 233.977C1914.16 230.271 1919.12 228.359 1925.42 228.359V224.359C1918.23 224.359 1912.22 226.573 1907.57 231.117L1910.37 233.977Z" fill="white"/>
<path d="M-1.59375 400.25L0.291504 399.582L-0.180351 398.25H-1.59375V400.25ZM51 548.75L49.1147 549.418L51.0051 554.755L52.8864 549.415L51 548.75ZM103.312 400.25V398.25H101.897L101.426 399.585L103.312 400.25ZM158.719 400.25H160.719V398.25H158.719V400.25ZM158.719 605V607H160.719V605H158.719ZM116.391 605H114.391V607H116.391V605ZM116.391 549.031L114.393 548.944L114.391 548.988V549.031H116.391ZM120.609 452.422L122.607 452.509L118.729 451.741L120.609 452.422ZM65.3438 605V607H66.7465L67.2242 605.681L65.3438 605ZM36.375 605L34.4942 605.68L34.9715 607H36.375V605ZM-18.75 452.562L-16.8692 451.882L-20.7481 452.65L-18.75 452.562ZM-14.5312 549.031H-12.5312V548.988L-12.5332 548.944L-14.5312 549.031ZM-14.5312 605V607H-12.5312V605H-14.5312ZM-56.7188 605H-58.7188V607H-56.7188V605ZM-56.7188 400.25V398.25H-58.7188V400.25H-56.7188ZM-3.479 400.918L49.1147 549.418L52.8853 548.082L0.291504 399.582L-3.479 400.918ZM52.8864 549.415L105.199 400.915L101.426 399.585L49.1136 548.085L52.8864 549.415ZM103.312 402.25H158.719V398.25H103.312V402.25ZM156.719 400.25V605H160.719V400.25H156.719ZM158.719 603H116.391V607H158.719V603ZM118.391 605V549.031H114.391V605H118.391ZM118.389 549.118L122.607 452.509L118.611 452.335L114.393 548.944L118.389 549.118ZM118.729 451.741L63.4633 604.319L67.2242 605.681L122.49 453.103L118.729 451.741ZM65.3438 603H36.375V607H65.3438V603ZM38.2558 604.32L-16.8692 451.882L-20.6308 453.243L34.4942 605.68L38.2558 604.32ZM-20.7481 452.65L-16.5293 549.119L-12.5332 548.944L-16.7519 452.475L-20.7481 452.65ZM-16.5312 549.031V605H-12.5312V549.031H-16.5312ZM-14.5312 603H-56.7188V607H-14.5312V603ZM-54.7188 605V400.25H-58.7188V605H-54.7188ZM-56.7188 402.25H-1.59375V398.25H-56.7188V402.25ZM304.193 470.703L302.754 472.093L302.759 472.098L304.193 470.703ZM315.724 570.266L313.918 569.405L313.915 569.411L315.724 570.266ZM291.536 597.969L290.476 596.273L290.469 596.277L291.536 597.969ZM255.818 607.672L255.831 605.672H255.818V607.672ZM208.286 589.531L206.828 590.9L206.833 590.905L208.286 589.531ZM191.13 516.125V514.125H189.13V516.125H191.13ZM283.099 516.125V518.125H285.405L285.079 515.842L283.099 516.125ZM271.568 491.516L270.176 492.952L270.181 492.957L270.187 492.962L271.568 491.516ZM214.052 489.406L213.193 487.6L213.175 487.608L213.157 487.617L214.052 489.406ZM205.614 493.625L203.772 494.403L204.602 496.367L206.509 495.414L205.614 493.625ZM194.505 467.328L193.261 465.762L192.072 466.707L192.663 468.106L194.505 467.328ZM282.677 543.828L284.655 544.124L284.998 541.828H282.677V543.828ZM231.068 543.828V541.828H229.068V543.828H231.068ZM237.536 568.016L236.064 569.37L236.071 569.377L236.078 569.384L237.536 568.016ZM252.161 451.891C272.962 451.891 289.766 458.65 302.754 472.093L305.631 469.313C291.807 455.006 273.923 447.891 252.161 447.891V451.891ZM302.759 472.098C315.733 485.435 322.302 503.272 322.302 525.828H326.302C326.302 502.447 319.465 483.534 305.626 469.309L302.759 472.098ZM322.302 525.828V529.906H326.302V525.828H322.302ZM322.302 529.906C322.302 544.551 319.494 557.705 313.918 569.405L317.529 571.126C323.391 558.826 326.302 545.074 326.302 529.906H322.302ZM313.915 569.411C308.443 580.994 300.63 589.926 290.476 596.273L292.596 599.665C303.442 592.886 311.754 583.35 317.532 571.12L313.915 569.411ZM290.469 596.277C280.415 602.617 268.891 605.763 255.831 605.672L255.804 609.672C269.556 609.768 281.845 606.445 292.603 599.66L290.469 596.277ZM255.818 605.672C235.989 605.672 220.719 599.767 209.739 588.157L206.833 590.905C218.728 603.483 235.146 609.672 255.818 609.672V605.672ZM209.745 588.163C198.753 576.45 193.13 559.936 193.13 538.344H189.13C189.13 560.626 194.945 578.237 206.828 590.9L209.745 588.163ZM193.13 538.344V516.125H189.13V538.344H193.13ZM191.13 518.125H283.099V514.125H191.13V518.125ZM285.079 515.842C283.531 505.007 279.532 496.353 272.948 490.069L270.187 492.962C275.978 498.49 279.667 506.243 281.119 516.408L285.079 515.842ZM272.959 490.079C266.44 483.761 258.041 480.656 247.943 480.656V484.656C257.157 484.656 264.507 487.458 270.176 492.952L272.959 490.079ZM247.943 480.656C234.593 480.656 222.989 482.944 213.193 487.6L214.91 491.213C224.052 486.868 235.042 484.656 247.943 484.656V480.656ZM213.157 487.617L204.72 491.836L206.509 495.414L214.946 491.195L213.157 487.617ZM207.457 492.847L196.347 466.55L192.663 468.106L203.772 494.403L207.457 492.847ZM195.749 468.894C202.36 463.642 210.608 459.48 220.543 456.444L219.374 452.619C209.058 455.77 200.337 460.14 193.261 465.762L195.749 468.894ZM220.543 456.444C230.465 453.412 241.001 451.891 252.161 451.891V447.891C240.634 447.891 229.701 449.463 219.374 452.619L220.543 456.444ZM255.818 576.906C263.603 576.906 270.069 573.992 275.053 568.194L272.02 565.587C267.816 570.476 262.47 572.906 255.818 572.906V576.906ZM275.053 568.194C279.978 562.465 283.122 554.373 284.655 544.124L280.699 543.532C279.231 553.346 276.282 560.628 272.02 565.587L275.053 568.194ZM282.677 541.828H231.068V545.828H282.677V541.828ZM229.068 543.828V547.484H233.068V543.828H229.068ZM229.068 547.484C229.068 556.779 231.294 564.185 236.064 569.37L239.008 566.662C235.153 562.471 233.068 556.19 233.068 547.484H229.068ZM236.078 569.384C240.859 574.477 247.537 576.906 255.818 576.906V572.906C248.348 572.906 242.839 570.742 238.994 566.647L236.078 569.384ZM388.494 452.844L390.489 452.7L390.356 450.844H388.494V452.844ZM389.76 470.422L387.765 470.566L388.132 475.659L391.322 471.671L389.76 470.422ZM481.588 506.703H483.588V506.693L483.588 506.683L481.588 506.703ZM481.588 605V607H483.588V605H481.588ZM440.948 605H438.948V607H440.948V605ZM435.323 488.984L433.874 490.364L433.883 490.372L433.891 490.381L435.323 488.984ZM390.885 497.703L389.16 496.691L388.885 497.16V497.703H390.885ZM390.885 605V607H392.885V605H390.885ZM350.244 605H348.244V607H350.244V605ZM350.244 452.844V450.844H348.244V452.844H350.244ZM386.5 452.987L387.765 470.566L391.755 470.278L390.489 452.7L386.5 452.987ZM391.322 471.671C401.796 458.579 415.785 452.031 433.494 452.031V448.031C414.641 448.031 399.474 455.077 388.198 469.172L391.322 471.671ZM433.494 452.031C449.222 452.031 460.572 456.634 467.957 465.513L471.032 462.956C462.667 452.897 450.017 448.031 433.494 448.031V452.031ZM467.957 465.513C475.417 474.483 479.403 488.107 479.588 506.723L483.588 506.683C483.398 487.612 479.322 472.923 471.032 462.956L467.957 465.513ZM479.588 506.703V605H483.588V506.703H479.588ZM481.588 603H440.948V607H481.588V603ZM442.948 605V507.688H438.948V605H442.948ZM442.948 507.688C442.948 498.843 441.036 491.977 436.754 487.588L433.891 490.381C437.109 493.68 438.948 499.282 438.948 507.688H442.948ZM436.771 487.605C432.468 483.088 425.566 481.078 416.619 481.078V485.078C425.111 485.078 430.677 487.006 433.874 490.364L436.771 487.605ZM416.619 481.078C404.483 481.078 395.243 486.32 389.16 496.691L392.61 498.715C397.965 489.586 405.881 485.078 416.619 485.078V481.078ZM388.885 497.703V605H392.885V497.703H388.885ZM390.885 603H350.244V607H390.885V603ZM352.244 605V452.844H348.244V605H352.244ZM350.244 454.844H388.494V450.844H350.244V454.844ZM668.333 554.234L666.417 554.808L668.327 561.185L670.247 554.811L668.333 554.234ZM714.739 400.25V398.25H713.253L712.824 399.673L714.739 400.25ZM761.708 400.25L763.596 400.908L764.522 398.25H761.708V400.25ZM690.411 605V607H691.832L692.299 605.658L690.411 605ZM646.395 605L644.505 605.655L644.972 607H646.395V605ZM575.379 400.25V398.25H572.569L573.49 400.905L575.379 400.25ZM622.208 400.25L624.123 399.676L623.696 398.25H622.208V400.25ZM670.247 554.811L716.654 400.827L712.824 399.673L666.418 553.657L670.247 554.811ZM714.739 402.25H761.708V398.25H714.739V402.25ZM759.819 399.592L688.522 604.342L692.299 605.658L763.596 400.908L759.819 399.592ZM690.411 603H646.395V607H690.411V603ZM648.285 604.345L577.269 399.595L573.49 400.905L644.505 605.655L648.285 604.345ZM575.379 402.25H622.208V398.25H575.379V402.25ZM620.292 400.824L666.417 554.808L670.248 553.66L624.123 399.676L620.292 400.824ZM868.509 589.531L870.504 589.386L870.142 584.401L866.965 588.26L868.509 589.531ZM789.478 593.75L787.999 595.096L788.006 595.104L789.478 593.75ZM776.4 552.547H774.4V552.557L774.4 552.568L776.4 552.547ZM776.4 452.844V450.844H774.4V452.844H776.4ZM817.041 452.844H819.041V450.844H817.041V452.844ZM867.103 560.562L868.864 561.512L869.103 561.067V560.562H867.103ZM867.103 452.844V450.844H865.103V452.844H867.103ZM907.884 452.844H909.884V450.844H907.884V452.844ZM907.884 605V607H909.884V605H907.884ZM869.634 605L867.64 605.145L867.775 607H869.634V605ZM821.963 425.703L823.319 427.173L823.329 427.163L823.339 427.154L821.963 425.703ZM793.838 400.531L795.233 401.964L795.242 401.955L795.252 401.945L793.838 400.531ZM821.963 400.531L820.548 401.945L820.567 401.964L820.586 401.982L821.963 400.531ZM862.603 400.391L863.941 401.877L863.943 401.875L862.603 400.391ZM890.306 400.391L888.93 401.842L888.939 401.85L888.948 401.859L890.306 400.391ZM890.588 425.703L891.983 427.136L891.992 427.127L892.002 427.117L890.588 425.703ZM862.322 425.703L860.908 427.117L860.926 427.136L860.945 427.154L862.322 425.703ZM866.965 588.26C857.363 599.926 844.088 605.812 826.884 605.812V609.812C845.118 609.812 859.593 603.512 870.054 590.802L866.965 588.26ZM826.884 605.812C810.965 605.812 799.097 601.251 790.95 592.396L788.006 595.104C797.11 604.999 810.179 609.812 826.884 609.812V605.812ZM790.957 592.404C782.874 583.521 778.584 570.337 778.4 552.526L774.4 552.568C774.591 570.944 779.02 585.229 787.999 595.096L790.957 592.404ZM778.4 552.547V452.844H774.4V552.547H778.4ZM776.4 454.844H817.041V450.844H776.4V454.844ZM815.041 452.844V551.141H819.041V452.844H815.041ZM815.041 551.141C815.041 559.327 816.902 565.84 820.976 570.312C825.083 574.819 831.12 576.906 838.697 576.906V572.906C831.837 572.906 827.045 571.033 823.933 567.618C820.789 564.168 819.041 558.798 819.041 551.141H815.041ZM838.697 576.906C852.982 576.906 863.261 571.903 868.864 561.512L865.343 559.613C860.633 568.347 851.975 572.906 838.697 572.906V576.906ZM869.103 560.562V452.844H865.103V560.562H869.103ZM867.103 454.844H907.884V450.844H867.103V454.844ZM905.884 452.844V605H909.884V452.844H905.884ZM907.884 603H869.634V607H907.884V603ZM871.629 604.855L870.504 589.386L866.515 589.676L867.64 605.145L871.629 604.855ZM825.447 413.047C825.447 417.458 823.851 421.155 820.586 424.252L823.339 427.154C827.387 423.314 829.447 418.573 829.447 413.047H825.447ZM820.606 424.234C817.374 427.217 813.196 428.766 807.9 428.766V432.766C814.041 432.766 819.238 430.94 823.319 427.173L820.606 424.234ZM807.9 428.766C802.514 428.766 798.359 427.174 795.233 424.13L792.442 426.995C796.441 430.889 801.661 432.766 807.9 432.766V428.766ZM795.233 424.13C792.048 421.029 790.494 417.37 790.494 413.047H786.494C786.494 418.474 788.502 423.159 792.442 426.995L795.233 424.13ZM790.494 413.047C790.494 408.724 792.048 405.065 795.233 401.964L792.442 399.098C788.502 402.935 786.494 407.62 786.494 413.047H790.494ZM795.252 401.945C798.381 398.816 802.53 397.188 807.9 397.188V393.188C801.645 393.188 796.419 395.121 792.423 399.117L795.252 401.945ZM807.9 397.188C813.27 397.188 817.419 398.816 820.548 401.945L823.377 399.117C819.381 395.121 814.155 393.188 807.9 393.188V397.188ZM820.586 401.982C823.859 405.088 825.447 408.741 825.447 413.047H829.447C829.447 407.603 827.378 402.912 823.339 399.08L820.586 401.982ZM858.978 413.047C858.978 408.549 860.614 404.871 863.941 401.877L861.265 398.904C857.092 402.66 854.978 407.42 854.978 413.047H858.978ZM863.943 401.875C867.4 398.756 871.555 397.188 876.525 397.188V393.188C870.62 393.188 865.494 395.088 861.263 398.906L863.943 401.875ZM876.525 397.188C881.599 397.188 885.683 398.761 888.93 401.842L891.683 398.94C887.617 395.083 882.514 393.188 876.525 393.188V397.188ZM888.948 401.859C892.302 404.961 893.931 408.653 893.931 413.047H897.931C897.931 407.503 895.811 402.758 891.664 398.922L888.948 401.859ZM893.931 413.047C893.931 417.372 892.375 421.087 889.173 424.289L892.002 427.117C895.925 423.194 897.931 418.472 897.931 413.047H893.931ZM889.192 424.27C886.066 427.314 881.911 428.906 876.525 428.906V432.906C882.764 432.906 887.984 431.029 891.983 427.136L889.192 424.27ZM876.525 428.906C871.14 428.906 866.926 427.314 863.698 424.252L860.945 427.154C865.03 431.029 870.285 432.906 876.525 432.906V428.906ZM863.736 424.289C860.535 421.087 858.978 417.372 858.978 413.047H854.978C854.978 418.472 856.984 423.194 860.908 427.117L863.736 424.289ZM1016.37 551.281L1015.35 552.999L1015.37 553.011L1015.39 553.022L1016.37 551.281ZM992.749 543.547L992.338 545.504L992.344 545.505L992.749 543.547ZM955.202 463.672L956.458 465.228L956.459 465.227L955.202 463.672ZM1045.48 463.672L1044.24 465.242L1044.25 465.247L1045.48 463.672ZM1062.92 499.109V501.109H1064.92V499.109H1062.92ZM1022.28 499.109H1020.28V501.109H1022.28V499.109ZM1016.66 484.766L1015.22 486.162L1015.23 486.171L1015.24 486.18L1016.66 484.766ZM983.889 506.422L982.78 508.086L982.801 508.1L982.823 508.114L983.889 506.422ZM1005.55 513.594L1005.15 515.553L1005.16 515.555L1005.16 515.557L1005.55 513.594ZM1031.14 520.344L1031.83 518.466L1031.82 518.465L1031.14 520.344ZM1045.48 595.016L1046.65 596.641L1046.66 596.635L1045.48 595.016ZM965.327 601.062L964.481 602.875L964.491 602.88L964.502 602.884L965.327 601.062ZM942.124 582.359L940.49 583.513L940.496 583.522L942.124 582.359ZM933.686 556.625V554.625H931.686V556.625H933.686ZM972.218 556.625L974.215 556.521L974.116 554.625H972.218V556.625ZM1017.78 574.625L1018.97 576.234L1018.97 576.229L1017.78 574.625ZM1025.83 562.953C1025.83 557.143 1022.84 552.645 1017.36 549.541L1015.39 553.022C1019.84 555.543 1021.83 558.825 1021.83 562.953H1025.83ZM1017.4 549.563C1012.23 546.48 1004.08 543.849 993.154 541.588L992.344 545.505C1003.17 547.745 1010.77 550.27 1015.35 552.999L1017.4 549.563ZM993.16 541.59C975.227 537.826 962.022 532.18 953.333 524.796C944.72 517.478 940.468 508.396 940.468 497.422H936.468C936.468 509.604 941.262 519.788 950.743 527.844C960.147 535.836 974.083 541.674 992.338 545.504L993.16 541.59ZM940.468 497.422C940.468 484.568 945.739 473.876 956.458 465.228L953.946 462.115C942.353 471.468 936.468 483.275 936.468 497.422H940.468ZM956.459 465.227C967.271 456.487 981.464 452.031 999.218 452.031V448.031C980.784 448.031 965.632 452.669 953.945 462.116L956.459 465.227ZM999.218 452.031C1018.22 452.031 1033.16 456.504 1044.24 465.242L1046.72 462.101C1034.74 452.653 1018.84 448.031 999.218 448.031V452.031ZM1044.25 465.247C1055.4 473.969 1060.92 485.205 1060.92 499.109H1064.92C1064.92 483.952 1058.82 471.562 1046.72 462.097L1044.25 465.247ZM1062.92 497.109H1022.28V501.109H1062.92V497.109ZM1024.28 499.109C1024.28 492.822 1022.23 487.514 1018.07 483.351L1015.24 486.18C1018.58 489.517 1020.28 493.771 1020.28 499.109H1024.28ZM1018.09 483.369C1013.81 478.986 1007.32 477 999.077 477V481C1006.77 481 1012 482.857 1015.22 486.162L1018.09 483.369ZM999.077 477C991.955 477 986.143 478.608 981.914 482.098L984.459 485.183C987.729 482.485 992.511 481 999.077 481V477ZM981.914 482.098C977.712 485.564 975.561 490.063 975.561 495.453H979.561C979.561 491.28 981.161 487.905 984.459 485.183L981.914 482.098ZM975.561 495.453C975.561 500.715 978.088 504.958 982.78 508.086L984.999 504.758C981.254 502.261 979.561 499.191 979.561 495.453H975.561ZM982.823 508.114C987.458 511.036 994.977 513.482 1005.15 515.553L1005.94 511.634C995.865 509.581 988.946 507.246 984.956 504.73L982.823 508.114ZM1005.16 515.557C1015.22 517.513 1023.65 519.738 1030.45 522.223L1031.82 518.465C1024.76 515.887 1016.12 513.612 1005.93 511.631L1005.16 515.557ZM1030.45 522.221C1040.94 526.071 1048.64 531.267 1053.72 537.717C1058.78 544.143 1061.34 551.955 1061.34 561.266H1065.34C1065.34 551.17 1062.54 542.458 1056.86 535.244C1051.21 528.053 1042.8 522.492 1031.83 518.466L1030.45 522.221ZM1061.34 561.266C1061.34 574.456 1055.73 585.121 1044.31 593.396L1046.66 596.635C1059.05 587.66 1065.34 575.825 1065.34 561.266H1061.34ZM1044.32 593.39C1032.84 601.616 1017.9 605.812 999.358 605.812V609.812C1018.5 609.812 1034.32 605.478 1046.65 596.641L1044.32 593.39ZM999.358 605.812C986.845 605.812 975.79 603.605 966.152 599.241L964.502 602.884C974.739 607.52 986.371 609.812 999.358 609.812V605.812ZM966.173 599.25C956.602 594.784 949.152 588.759 943.751 581.197L940.496 583.522C946.345 591.71 954.364 598.154 964.481 602.875L966.173 599.25ZM943.758 581.206C938.355 573.553 935.686 565.373 935.686 556.625H931.686C931.686 566.252 934.642 575.229 940.49 583.513L943.758 581.206ZM933.686 558.625H972.218V554.625H933.686V558.625ZM970.22 556.729C970.62 564.432 973.508 570.545 979.009 574.801L981.457 571.637C977.021 568.205 974.565 563.256 974.215 556.521L970.22 556.729ZM979.009 574.801C984.428 578.993 991.56 580.984 1000.2 580.984V576.984C992.156 576.984 985.976 575.132 981.457 571.637L979.009 574.801ZM1000.2 580.984C1008.18 580.984 1014.54 579.505 1018.97 576.234L1016.59 573.016C1013.15 575.558 1007.79 576.984 1000.2 576.984V580.984ZM1018.97 576.229C1023.48 572.875 1025.83 568.403 1025.83 562.953H1021.83C1021.83 567.065 1020.14 570.375 1016.59 573.021L1018.97 576.229ZM1180.69 605L1178.91 605.913L1179.47 607H1180.69V605ZM1176.61 591.359L1178.59 591.053L1177.94 586.884L1175.12 590.024L1176.61 591.359ZM1101.1 594.875L1099.77 596.373L1099.78 596.379L1101.1 594.875ZM1104.33 525.125L1103.16 523.501L1103.16 523.505L1104.33 525.125ZM1156.22 512.047V510.047L1156.21 510.047L1156.22 512.047ZM1174.93 512.047V514.047H1176.93V512.047H1174.93ZM1169.44 486.453L1167.91 487.743L1167.92 487.753L1167.93 487.763L1169.44 486.453ZM1136.25 485.047L1134.97 483.51L1134.96 483.518L1134.96 483.526L1136.25 485.047ZM1130.49 498.547V500.547H1132.49V498.547H1130.49ZM1089.85 498.547H1087.85V500.547H1089.85V498.547ZM1121.07 456.5L1121.85 458.341L1121.86 458.338L1121.86 458.335L1121.07 456.5ZM1199.11 464.234L1197.81 465.748L1197.81 465.754L1197.82 465.76L1199.11 464.234ZM1215.71 569.844H1213.71V569.857L1215.71 569.844ZM1221.75 602.609H1223.75V602.111L1223.52 601.671L1221.75 602.609ZM1221.75 605V607H1223.75V605H1221.75ZM1163.68 572.797L1164.6 574.572L1164.61 574.566L1164.62 574.559L1163.68 572.797ZM1174.93 561.969L1176.68 562.921L1176.93 562.476V561.969H1174.93ZM1174.93 535.812H1176.93V533.812H1174.93V535.812ZM1127.25 556.906L1125.26 556.72L1125.26 556.755L1125.26 556.789L1127.25 556.906ZM1127.11 559.297L1125.12 559.179L1125.11 559.238V559.297H1127.11ZM1182.47 604.087C1180.72 600.673 1179.41 596.346 1178.59 591.053L1174.64 591.666C1175.5 597.248 1176.91 602.014 1178.91 605.913L1182.47 604.087ZM1175.12 590.024C1165.69 600.538 1153.45 605.812 1138.22 605.812V609.812C1154.5 609.812 1167.85 604.118 1178.1 592.695L1175.12 590.024ZM1138.22 605.812C1123.73 605.812 1111.84 601.632 1102.42 593.371L1099.78 596.379C1110.04 605.368 1122.9 609.812 1138.22 609.812V605.812ZM1102.42 593.377C1093.11 585.135 1088.47 574.807 1088.47 562.25H1084.47C1084.47 575.943 1089.59 587.365 1099.77 596.373L1102.42 593.377ZM1088.47 562.25C1088.47 546.694 1094.17 534.953 1105.51 526.745L1103.16 523.505C1090.68 532.547 1084.47 545.556 1084.47 562.25H1088.47ZM1105.5 526.749C1117.03 518.464 1133.85 514.14 1156.23 514.047L1156.21 510.047C1133.41 510.142 1115.64 514.536 1103.16 523.501L1105.5 526.749ZM1156.22 514.047H1174.93V510.047H1156.22V514.047ZM1176.93 512.047V503.328H1172.93V512.047H1176.93ZM1176.93 503.328C1176.93 495.945 1175 489.812 1170.95 485.143L1167.93 487.763C1171.2 491.531 1172.93 496.649 1172.93 503.328H1176.93ZM1170.97 485.163C1166.89 480.332 1160.55 478.125 1152.43 478.125V482.125C1159.87 482.125 1164.87 484.136 1167.91 487.743L1170.97 485.163ZM1152.43 478.125C1145.27 478.125 1139.38 479.842 1134.97 483.51L1137.53 486.583C1141.01 483.689 1145.89 482.125 1152.43 482.125V478.125ZM1134.96 483.526C1130.6 487.24 1128.49 492.329 1128.49 498.547H1132.49C1132.49 493.327 1134.22 489.417 1137.55 486.568L1134.96 483.526ZM1130.49 496.547H1089.85V500.547H1130.49V496.547ZM1091.85 498.547C1091.85 490.178 1094.42 482.429 1099.62 475.252L1096.38 472.904C1090.71 480.727 1087.85 489.29 1087.85 498.547H1091.85ZM1099.62 475.252C1104.81 468.092 1112.19 462.441 1121.85 458.341L1120.28 454.659C1110.07 458.996 1102.07 465.064 1096.38 472.904L1099.62 475.252ZM1121.86 458.335C1131.52 454.146 1142.4 452.031 1154.54 452.031V448.031C1141.92 448.031 1130.49 450.229 1120.27 454.665L1121.86 458.335ZM1154.54 452.031C1172.95 452.031 1187.3 456.676 1197.81 465.748L1200.42 462.72C1188.99 452.855 1173.62 448.031 1154.54 448.031V452.031ZM1197.82 465.76C1208.35 474.687 1213.71 487.301 1213.71 503.891H1217.71C1217.71 486.355 1212 472.532 1200.41 462.709L1197.82 465.76ZM1213.71 503.891V569.844H1217.71V503.891H1213.71ZM1213.71 569.857C1213.8 584.415 1215.83 595.72 1219.99 603.548L1223.52 601.671C1219.81 594.686 1217.8 584.147 1217.71 569.831L1213.71 569.857ZM1219.75 602.609V605H1223.75V602.609H1219.75ZM1221.75 603H1180.69V607H1221.75V603ZM1147.08 578.734C1153.39 578.734 1159.23 577.353 1164.6 574.572L1162.76 571.021C1157.99 573.491 1152.78 574.734 1147.08 574.734V578.734ZM1164.62 574.559C1169.98 571.679 1174.04 567.806 1176.68 562.921L1173.17 561.016C1170.94 565.132 1167.49 568.477 1162.73 571.035L1164.62 574.559ZM1176.93 561.969V535.812H1172.93V561.969H1176.93ZM1174.93 533.812H1159.74V537.812H1174.93V533.812ZM1159.74 533.812C1149.38 533.812 1141.15 535.593 1135.27 539.409C1129.29 543.292 1125.97 549.146 1125.26 556.72L1129.25 557.092C1129.85 550.604 1132.6 545.912 1137.45 542.763C1142.4 539.547 1149.75 537.812 1159.74 537.812V533.812ZM1125.26 556.789L1125.12 559.179L1129.11 559.414L1129.25 557.024L1125.26 556.789ZM1125.11 559.297C1125.11 564.89 1127.11 569.605 1131.1 573.284L1133.81 570.341C1130.68 567.458 1129.11 563.829 1129.11 559.297H1125.11ZM1131.1 573.284C1135.13 576.991 1140.54 578.734 1147.08 578.734V574.734C1141.25 574.734 1136.91 573.196 1133.81 570.341L1131.1 573.284ZM1292.7 605V607H1294.7V605H1292.7ZM1251.92 605H1249.92V607H1251.92V605ZM1251.92 389V387H1249.92V389H1251.92ZM1292.7 389H1294.7V387H1292.7V389ZM1292.7 603H1251.92V607H1292.7V603ZM1253.92 605V389H1249.92V605H1253.92ZM1251.92 391H1292.7V387H1251.92V391ZM1290.7 389V605H1294.7V389H1290.7ZM1337.76 569.281L1336.41 567.806L1336.41 567.813L1336.4 567.82L1337.76 569.281ZM1370.67 569.281L1369.3 570.742L1369.31 570.75L1369.32 570.757L1370.67 569.281ZM1370.81 600.641L1372.16 602.118L1372.17 602.11L1372.18 602.102L1370.81 600.641ZM1337.76 600.641L1336.4 602.102L1336.41 602.11L1336.42 602.118L1337.76 600.641ZM1333.3 585.031C1333.3 579.057 1335.26 574.357 1339.13 570.742L1336.4 567.82C1331.64 572.268 1329.3 578.068 1329.3 585.031H1333.3ZM1339.11 570.757C1343.11 567.097 1348.1 565.234 1354.22 565.234V561.234C1347.21 561.234 1341.23 563.403 1336.41 567.806L1339.11 570.757ZM1354.22 565.234C1360.44 565.234 1365.41 567.102 1369.3 570.742L1372.04 567.82C1367.3 563.398 1361.31 561.234 1354.22 561.234V565.234ZM1369.32 570.757C1373.28 574.375 1375.28 579.072 1375.28 585.031H1379.28C1379.28 578.053 1376.88 572.25 1372.02 567.806L1369.32 570.757ZM1375.28 585.031C1375.28 590.902 1373.32 595.559 1369.44 599.18L1372.18 602.102C1376.93 597.66 1379.28 591.911 1379.28 585.031H1375.28ZM1369.46 599.164C1365.58 602.713 1360.55 604.547 1354.22 604.547V608.547C1361.38 608.547 1367.42 606.444 1372.16 602.118L1369.46 599.164ZM1354.22 604.547C1347.98 604.547 1343 602.717 1339.11 599.164L1336.42 602.118C1341.15 606.439 1347.14 608.547 1354.22 608.547V604.547ZM1339.13 599.18C1335.26 595.559 1333.3 590.902 1333.3 585.031H1329.3C1329.3 591.911 1331.65 597.66 1336.4 602.102L1339.13 599.18Z" fill="white"/>
</g>
</svg>
